<?xml version="1.0" encoding="UTF-8"?>
<!DOCTYPE svg PUBLIC "-//W3C//DTD SVG 1.1//EN" "http://www.w3.org/Graphics/SVG/1.1/DTD/svg11.dtd">
<!-- Creator: CorelDRAW X6 -->
<svg xmlns="http://www.w3.org/2000/svg" xml:space="preserve" width="145.507mm" height="32.4078mm" version="1.1" style="shape-rendering:geometricPrecision; text-rendering:geometricPrecision; image-rendering:optimizeQuality; fill-rule:evenodd; clip-rule:evenodd"
viewBox="0 0 5855 1304"
 xmlns:xlink="http://www.w3.org/1999/xlink">
 <defs>
  <style type="text/css">
   <![CDATA[
    .fil0 {fill:#FEFEFE;fill-rule:nonzero}
   ]]>
  </style>
 </defs>
 <g id="Camada_x0020_1">
  <metadata id="CorelCorpID_0Corel-Layer"/>
  <path class="fil0" d="M680 1195c10,11 15,24 15,38 0,16 -8,31 -23,44 -13,10 -26,15 -39,15 -18,0 -32,-8 -44,-23l-339 -416 -123 112 0 258c0,19 -6,34 -17,45 -12,12 -27,17 -45,17 -19,0 -34,-6 -45,-17 -12,-12 -17,-27 -17,-45l0 -1160c0,-19 6,-34 17,-45 12,-12 27,-17 45,-17 19,0 34,6 45,17 12,12 17,27 17,45l0 749 464 -420c12,-11 25,-16 39,-16 16,0 30,7 41,20 12,14 18,27 18,39 0,15 -7,29 -21,41l-329 298 342 421z"/>
  <path id="1" class="fil0" d="M1212 375c46,0 83,6 109,18 27,12 40,29 40,51 0,7 -1,12 -2,15 -4,15 -11,26 -21,31 -9,5 -22,8 -39,8 -10,0 -27,-1 -51,-3 -9,-1 -22,-2 -39,-2 -82,0 -149,22 -202,66 -52,44 -78,101 -78,171l0 492c0,20 -5,35 -16,46 -11,11 -26,16 -46,16 -20,0 -35,-5 -46,-16 -11,-11 -16,-26 -16,-46l0 -775c0,-20 5,-35 16,-46 11,-11 26,-16 46,-16 20,0 35,5 46,16 11,11 16,26 16,46l0 72c32,-46 72,-82 122,-107 49,-25 103,-38 160,-38z"/>
  <path id="2" class="fil0" d="M1767 377c86,0 163,20 233,60 70,40 124,95 165,165 40,70 60,148 60,234l0 387c0,18 -6,32 -18,44 -12,12 -27,18 -46,18 -19,0 -34,-6 -46,-17 -12,-12 -18,-27 -18,-45l0 -99c-38,53 -87,94 -146,124 -59,30 -124,45 -196,45 -83,0 -159,-20 -226,-60 -67,-40 -121,-95 -160,-165 -39,-70 -58,-147 -58,-233 0,-86 20,-163 60,-234 40,-70 95,-125 165,-165 70,-40 147,-60 233,-60zm0 801c63,0 119,-15 169,-44 50,-30 90,-70 119,-123 29,-52 44,-111 44,-175 0,-65 -15,-123 -44,-175 -29,-52 -69,-93 -119,-123 -50,-30 -107,-45 -169,-45 -63,0 -119,15 -170,45 -51,30 -91,71 -120,123 -29,52 -44,111 -44,175 0,65 15,123 44,175 29,52 69,93 120,123 51,30 108,44 170,44z"/>
  <path id="3" class="fil0" d="M2732 1158c18,0 32,6 43,18 11,12 16,27 16,46 0,18 -7,32 -20,44 -13,12 -30,18 -49,18l-35 0c-58,0 -110,-14 -156,-42 -46,-28 -82,-66 -108,-114 -26,-48 -39,-102 -39,-162l0 -439 -107 0c-18,0 -32,-5 -42,-16 -10,-10 -16,-23 -16,-39 0,-16 5,-30 16,-40 10,-10 24,-16 42,-16l107 0 0 -255c0,-19 6,-34 17,-46 12,-12 27,-18 45,-18 19,0 34,6 46,18 12,12 18,27 18,46l0 255 186 0c18,0 32,5 42,16 10,10 16,24 16,40 0,15 -5,28 -16,39 -10,10 -24,16 -42,16l-186 0 0 439c0,56 16,102 49,137 33,36 75,53 127,53l44 0z"/>
  <path id="4" class="fil0" d="M3271 377c87,0 165,20 234,59 69,39 124,94 164,165 40,70 60,149 60,235 0,87 -20,165 -59,234 -39,70 -94,124 -164,164 -70,39 -148,59 -234,59 -87,0 -165,-20 -234,-59 -70,-39 -124,-94 -164,-164 -39,-70 -59,-148 -59,-234 0,-87 20,-165 59,-235 39,-70 94,-125 164,-165 70,-39 148,-59 234,-59zm0 115c-63,0 -119,15 -170,44 -51,30 -91,70 -120,123 -29,52 -44,111 -44,177 0,65 15,123 44,175 29,52 69,93 120,123 51,30 108,44 170,44 64,0 121,-15 171,-44 50,-30 90,-70 118,-123 29,-52 43,-111 43,-175 0,-66 -14,-125 -43,-177 -29,-52 -68,-93 -118,-123 -50,-30 -107,-44 -171,-44z"/>
  <path id="5" class="fil0" d="M4151 377c72,0 135,12 189,37 54,25 97,59 130,103 9,14 13,27 13,38 0,19 -9,33 -26,44 -8,5 -18,8 -31,8 -23,0 -42,-8 -58,-25 -54,-61 -127,-92 -220,-92 -60,0 -109,12 -145,37 -36,25 -54,56 -54,93 0,39 17,71 51,95 34,24 94,43 181,57 117,20 201,52 252,96 50,44 76,100 76,165 0,50 -15,95 -45,135 -30,39 -72,70 -126,92 -54,22 -115,33 -183,33 -68,0 -133,-12 -196,-35 -63,-23 -113,-55 -151,-97 -11,-13 -16,-26 -16,-38 0,-19 9,-35 26,-49 13,-10 27,-15 41,-15 19,0 35,8 48,23 26,31 61,54 104,71 43,16 91,25 144,25 77,0 134,-13 173,-39 38,-26 58,-61 59,-104 0,-39 -19,-72 -58,-99 -38,-26 -99,-46 -183,-59 -107,-18 -188,-48 -241,-91 -53,-43 -80,-96 -80,-157 0,-80 31,-142 93,-186 62,-44 140,-66 233,-66z"/>
  <path class="fil0" d="M4595 1230c10,0 19,4 26,11 7,7 11,16 11,26 0,10 -4,19 -11,26 -7,7 -16,11 -26,11 -10,0 -19,-4 -26,-11 -7,-7 -11,-16 -11,-26 0,-11 4,-20 11,-27 7,-7 16,-11 26,-11z"/>
  <path id="1" class="fil0" d="M4818 943c53,0 96,20 129,61 3,4 5,8 5,13 0,7 -4,13 -11,18 -4,3 -8,4 -12,4 -6,0 -13,-3 -18,-10 -13,-14 -27,-25 -42,-32 -15,-7 -32,-11 -51,-11 -23,0 -44,6 -62,17 -18,11 -32,27 -42,47 -10,20 -15,43 -15,69 0,25 5,48 16,68 11,20 25,36 45,47 19,11 41,17 66,17 34,0 61,-9 82,-27 6,-5 11,-7 17,-7 5,0 10,2 14,5 6,5 9,11 9,17 0,6 -2,10 -6,14 -31,28 -69,43 -116,43 -33,0 -63,-8 -89,-23 -26,-15 -47,-37 -62,-64 -15,-27 -23,-57 -23,-90 0,-34 7,-64 22,-91 14,-27 34,-48 60,-63 25,-15 54,-23 86,-23z"/>
  <path id="2" class="fil0" d="M4983 821c0,-7 2,-13 7,-18 5,-4 10,-7 17,-7 7,0 13,2 18,7 4,4 7,10 7,18l0 363c0,18 4,33 11,45 7,11 17,17 28,17l16 0c6,0 11,2 15,7 4,4 6,10 6,18 0,7 -3,13 -8,18 -5,4 -12,7 -21,7l-8 0c-26,0 -47,-10 -63,-31 -16,-21 -25,-47 -25,-79l0 -363z"/>
  <path id="3" class="fil0" d="M5415 946c7,0 13,2 18,7 5,4 7,10 7,18l0 299c0,7 -2,13 -7,18 -5,5 -11,7 -18,7 -7,0 -13,-2 -18,-7 -4,-5 -7,-11 -7,-18l0 -22c-14,16 -31,28 -51,37 -20,9 -42,13 -65,13 -30,0 -57,-6 -81,-19 -24,-13 -43,-31 -56,-56 -14,-24 -20,-54 -20,-88l0 -166c0,-7 2,-13 7,-17 5,-5 10,-7 17,-7 7,0 13,2 18,7 5,5 7,10 7,17l0 166c0,38 11,67 32,86 21,20 48,30 82,30 21,0 40,-4 56,-12 17,-8 30,-19 40,-33 10,-14 15,-30 15,-47l0 -188c0,-7 2,-13 7,-18 4,-4 10,-7 18,-7z"/>
  <path id="4" class="fil0" d="M5502 964c0,1 -1,3 -1,6l0 150c0,33 8,63 23,90 15,27 37,48 64,64 27,15 57,23 90,23 33,0 63,-8 90,-23 27,-15 48,-37 64,-64 15,-27 23,-57 23,-90 0,-33 -8,-63 -23,-90 -15,-27 -36,-48 -62,-64 -26,-15 -55,-23 -88,-23 -28,0 -53,6 -76,18 -23,12 -42,28 -57,48l0 -187c0,-7 -2,-13 -7,-18 -5,-5 -11,-7 -18,-7 -7,0 -13,2 -18,7 -4,5 -7,11 -7,18l0 143zm176 288c-24,0 -46,-6 -66,-18 -20,-12 -35,-28 -46,-48 -11,-20 -17,-43 -17,-68 0,-7 0,-13 1,-16 0,-1 1,-2 1,-3 4,-33 18,-60 42,-81 24,-21 52,-32 86,-32 24,0 46,6 66,17 20,11 35,27 46,47 11,20 17,43 17,68 0,25 -6,48 -17,68 -11,20 -27,36 -46,48 -20,12 -42,18 -66,18z"/>
 </g>
</svg>
