<?xml version="1.0" encoding="UTF-8"?>
<!DOCTYPE svg PUBLIC "-//W3C//DTD SVG 1.1//EN" "http://www.w3.org/Graphics/SVG/1.1/DTD/svg11.dtd">
<!-- Creator: CorelDRAW X6 -->
<svg xmlns="http://www.w3.org/2000/svg" xml:space="preserve" width="101.004mm" height="98.4192mm" version="1.1" style="shape-rendering:geometricPrecision; text-rendering:geometricPrecision; image-rendering:optimizeQuality; fill-rule:evenodd; clip-rule:evenodd"
viewBox="0 0 2994 2917"
 xmlns:xlink="http://www.w3.org/1999/xlink">
 <defs>
  <style type="text/css">
   <![CDATA[
    .fil0 {fill:#201E1E}
    .fil1 {fill:#B5985A}
    .fil2 {fill:#201E1E;fill-rule:nonzero}
    .fil3 {fill:#B5985A;fill-rule:nonzero}
   ]]>
  </style>
 </defs>
 <g id="Camada_x0020_1">
  <metadata id="CorelCorpID_0Corel-Layer"/>
  <path class="fil0" d="M1205 685l57 0c25,0 45,-20 45,-45 0,-25 -20,-45 -45,-45l-57 0c-134,0 -199,107 -240,200 -8,17 -12,22 -13,24 -3,1 -10,0 -17,0l-253 -205c-19,-16 -48,-13 -63,7 -16,19 -13,48 7,63l264 214c7,6 16,9 25,10l3 0c56,4 95,0 129,-76 47,-106 91,-147 158,-147l0 0 0 0zm73 396c0,1 -1,1 -1,2l0 679c0,0 0,1 0,1 0,17 -10,33 -25,40 -6,3 -13,5 -20,5 0,0 -1,0 -1,0l-120 0c-25,0 -45,-20 -45,-45 0,-25 20,-45 45,-45l76 0 0 -896c0,-25 20,-45 45,-45 25,0 45,20 45,45l0 78c28,-43 56,-87 84,-132 60,-94 120,-187 165,-258 31,-50 65,-99 102,-145 38,-47 79,-91 126,-130 39,-32 85,-60 134,-78 45,-16 93,-23 141,-18 28,3 53,11 75,23 22,11 41,25 58,41 20,18 21,49 3,69 -18,20 -49,21 -69,3 -11,-10 -23,-19 -36,-26 -12,-6 -26,-11 -43,-13 -32,-4 -66,1 -97,13 -38,14 -74,35 -105,61 -41,34 -78,74 -112,116 -35,43 -66,89 -95,135 -52,82 -108,171 -165,259l-32 49 737 860c18,20 15,51 -5,69 -20,18 -51,15 -69,-5l-717 -838c-29,45 -55,87 -78,123zm-935 -990c9,-23 -3,-49 -26,-58l-79 -30c-23,-9 -49,3 -58,26 -9,23 3,49 26,58l79 30c5,2 10,3 16,3 18,0 35,-11 42,-29zm876 422c-103,0 -187,-84 -187,-187 0,-103 84,-187 187,-187 103,0 187,84 187,187 0,103 -84,187 -187,187zm0 -285c-54,0 -97,44 -97,97 0,54 44,97 97,97 54,0 97,-44 97,-97 0,-54 -44,-97 -97,-97zm-1219 39c0,25 20,45 45,45l256 0c25,0 45,-20 45,-45 0,-25 -20,-45 -45,-45l-256 0c-25,0 -45,20 -45,45zm179 238c7,18 24,29 42,29 5,0 11,-1 16,-3l79 -30c23,-9 35,-35 26,-58 -9,-23 -35,-35 -58,-26l-79 30c-23,9 -35,35 -26,58z"/>
  <path class="fil1" d="M476 78c10,-9 24,-12 38,-9l367 77c1,0 1,0 2,0l0 0c20,5 34,23 34,44l0 154c0,0 0,1 0,1l0 165c0,25 -20,45 -45,45 -25,0 -45,-20 -45,-45l0 -110 -313 66c-13,3 -27,-1 -38,-9 -10,-9 -17,-21 -17,-35l0 -308c0,-14 6,-26 17,-35zm73 287l277 -58 0 -81 -277 -58 0 197z"/>
  <path class="fil2" d="M688 2358c4,5 7,11 7,17 0,7 -3,14 -10,20 -6,4 -12,7 -18,7 -8,0 -14,-3 -20,-10l-151 -185 -55 50 0 115c0,8 -3,15 -8,20 -5,5 -12,8 -20,8 -8,0 -15,-3 -20,-8 -5,-5 -8,-12 -8,-20l0 -517c0,-8 3,-15 8,-20 5,-5 12,-8 20,-8 8,0 15,3 20,8 5,5 8,12 8,20l0 334 207 -187c5,-5 11,-7 18,-7 7,0 13,3 18,9 5,6 8,12 8,18 0,7 -3,13 -10,18l-147 133 153 188z"/>
  <path id="1" class="fil2" d="M925 1993c21,0 37,3 49,8 12,5 18,13 18,23 0,3 0,5 -1,7 -2,7 -5,11 -9,14 -4,2 -10,4 -17,4 -4,0 -12,0 -23,-1 -4,0 -10,-1 -18,-1 -37,0 -67,10 -90,29 -23,20 -35,45 -35,76l0 219c0,9 -2,16 -7,21 -5,5 -12,7 -21,7 -9,0 -16,-2 -21,-7 -5,-5 -7,-12 -7,-21l0 -345c0,-9 2,-16 7,-21 5,-5 12,-7 21,-7 9,0 16,2 21,7 5,5 7,12 7,21l0 32c14,-21 32,-36 54,-48 22,-11 46,-17 71,-17z"/>
  <path id="2" class="fil2" d="M1172 1993c38,0 73,9 104,27 31,18 55,42 73,74 18,31 27,66 27,104l0 172c0,8 -3,14 -8,20 -5,5 -12,8 -21,8 -8,0 -15,-3 -21,-8 -5,-5 -8,-12 -8,-20l0 -44c-17,23 -39,42 -65,55 -26,13 -55,20 -87,20 -37,0 -71,-9 -101,-27 -30,-18 -54,-42 -71,-73 -17,-31 -26,-66 -26,-104 0,-38 9,-73 27,-104 18,-31 42,-56 73,-74 31,-18 66,-27 104,-27zm0 357c28,0 53,-7 76,-20 22,-13 40,-31 53,-55 13,-23 19,-49 19,-78 0,-29 -6,-55 -19,-78 -13,-23 -31,-42 -53,-55 -22,-13 -48,-20 -76,-20 -28,0 -53,7 -76,20 -23,13 -41,32 -54,55 -13,23 -19,49 -19,78 0,29 6,55 19,78 13,23 31,41 54,55 23,13 48,20 76,20z"/>
  <path id="3" class="fil2" d="M1602 2342c8,0 14,3 19,8 5,5 7,12 7,21 0,8 -3,14 -9,20 -6,5 -13,8 -22,8l-15 0c-26,0 -49,-6 -70,-19 -21,-12 -37,-29 -48,-51 -11,-21 -17,-45 -17,-72l0 -196 -48 0c-8,0 -14,-2 -19,-7 -5,-5 -7,-10 -7,-17 0,-7 2,-13 7,-18 5,-5 11,-7 19,-7l48 0 0 -114c0,-8 3,-15 8,-21 5,-5 12,-8 20,-8 8,0 15,3 21,8 5,5 8,12 8,21l0 114 83 0c8,0 14,2 19,7 5,5 7,11 7,18 0,7 -2,13 -7,17 -5,5 -11,7 -19,7l-83 0 0 196c0,25 7,45 22,61 15,16 33,24 56,24l20 0z"/>
  <path id="4" class="fil2" d="M1842 1993c39,0 73,9 104,26 31,18 55,42 73,73 18,31 27,66 27,105 0,39 -9,73 -26,104 -18,31 -42,55 -73,73 -31,18 -66,26 -104,26 -39,0 -73,-9 -104,-26 -31,-18 -55,-42 -73,-73 -18,-31 -26,-66 -26,-104 0,-39 9,-74 26,-105 18,-31 42,-56 73,-73 31,-18 66,-26 104,-26zm0 51c-28,0 -53,7 -76,20 -23,13 -41,31 -54,55 -13,23 -19,49 -19,79 0,29 6,55 19,78 13,23 31,41 54,55 23,13 48,20 76,20 28,0 54,-7 76,-20 22,-13 40,-31 53,-55 13,-23 19,-49 19,-78 0,-29 -6,-56 -19,-79 -13,-23 -30,-41 -53,-55 -22,-13 -48,-20 -76,-20z"/>
  <path id="5" class="fil2" d="M2234 1993c32,0 60,5 84,16 24,11 43,26 58,46 4,6 6,12 6,17 0,8 -4,15 -12,20 -3,2 -8,4 -14,4 -10,0 -19,-4 -26,-11 -24,-27 -57,-41 -98,-41 -27,0 -48,5 -65,16 -16,11 -24,25 -24,41 0,18 8,32 23,42 15,11 42,19 81,25 52,9 90,23 112,43 22,20 34,44 34,74 0,22 -7,43 -20,60 -13,18 -32,31 -56,41 -24,10 -51,15 -81,15 -30,0 -59,-5 -87,-15 -28,-10 -50,-25 -67,-43 -5,-6 -7,-11 -7,-17 0,-8 4,-16 12,-22 6,-4 12,-7 18,-7 8,0 15,3 21,10 12,14 27,24 47,32 19,7 41,11 64,11 34,0 60,-6 77,-18 17,-12 26,-27 26,-46 0,-18 -9,-32 -26,-44 -17,-12 -44,-21 -81,-26 -48,-8 -84,-21 -107,-41 -24,-19 -36,-43 -36,-70 0,-36 14,-63 41,-83 28,-20 62,-29 104,-29z"/>
  <path class="fil2" d="M2432 2374c5,0 8,2 12,5 3,3 5,7 5,12 0,5 -2,8 -5,12 -3,3 -7,5 -12,5 -5,0 -8,-2 -12,-5 -3,-3 -5,-7 -5,-12 0,-5 2,-9 5,-12 3,-3 7,-5 11,-5z"/>
  <path id="1" class="fil2" d="M2532 2246c24,0 43,9 58,27 2,2 2,4 2,6 0,3 -2,6 -5,8 -2,1 -4,2 -5,2 -3,0 -6,-1 -8,-4 -6,-6 -12,-11 -19,-14 -7,-3 -14,-5 -23,-5 -10,0 -20,3 -28,8 -8,5 -14,12 -19,21 -4,9 -7,19 -7,31 0,11 2,21 7,30 5,9 11,16 20,21 9,5 18,8 29,8 15,0 27,-4 37,-12 2,-2 5,-3 8,-3 2,0 4,1 6,2 3,2 4,5 4,8 0,2 -1,5 -3,6 -14,13 -31,19 -52,19 -15,0 -28,-3 -40,-10 -12,-7 -21,-16 -28,-28 -7,-12 -10,-25 -10,-40 0,-15 3,-29 10,-41 6,-12 15,-21 27,-28 11,-7 24,-10 38,-10z"/>
  <path id="2" class="fil2" d="M2605 2191c0,-3 1,-6 3,-8 2,-2 5,-3 8,-3 3,0 6,1 8,3 2,2 3,5 3,8l0 162c0,8 2,15 5,20 3,5 8,8 13,8l7 0c3,0 5,1 7,3 2,2 3,5 3,8 0,3 -1,6 -4,8 -2,2 -5,3 -9,3l-4 0c-12,0 -21,-5 -28,-14 -7,-9 -11,-21 -11,-35l0 -162z"/>
  <path id="3" class="fil2" d="M2798 2247c3,0 6,1 8,3 2,2 3,5 3,8l0 133c0,3 -1,6 -3,8 -2,2 -5,3 -8,3 -3,0 -6,-1 -8,-3 -2,-2 -3,-5 -3,-8l0 -10c-6,7 -14,12 -23,16 -9,4 -19,6 -29,6 -13,0 -25,-3 -36,-9 -11,-6 -19,-14 -25,-25 -6,-11 -9,-24 -9,-39l0 -74c0,-3 1,-6 3,-8 2,-2 5,-3 8,-3 3,0 6,1 8,3 2,2 3,5 3,8l0 74c0,17 5,30 14,38 9,9 22,13 37,13 9,0 18,-2 25,-5 7,-4 13,-9 18,-15 4,-6 7,-13 7,-21l0 -84c0,-3 1,-6 3,-8 2,-2 5,-3 8,-3z"/>
  <path id="4" class="fil2" d="M2837 2255c0,1 0,1 0,3l0 67c0,15 3,28 10,40 7,12 16,22 28,29 12,7 25,10 40,10 15,0 28,-3 40,-10 12,-7 21,-16 28,-29 7,-12 10,-26 10,-40 0,-15 -3,-28 -10,-40 -7,-12 -16,-21 -28,-28 -12,-7 -25,-10 -39,-10 -12,0 -24,3 -34,8 -10,5 -19,12 -25,21l0 -83c0,-3 -1,-6 -3,-8 -2,-2 -5,-3 -8,-3 -3,0 -6,1 -8,3 -2,2 -3,5 -3,8l0 64zm79 129c-11,0 -21,-3 -29,-8 -9,-5 -16,-12 -21,-21 -5,-9 -8,-19 -8,-30 0,-3 0,-6 0,-7 0,0 0,-1 0,-1 2,-15 8,-27 19,-36 10,-9 23,-14 38,-14 11,0 21,3 29,8 9,5 16,12 21,21 5,9 8,19 8,30 0,11 -3,21 -8,30 -5,9 -12,16 -21,21 -9,5 -19,8 -29,8z"/>
  <path class="fil2" d="M647 2648c0,-3 0,-5 -1,-8 -1,-3 -3,-5 -5,-7 -2,-2 -6,-4 -10,-6 -4,-2 -10,-4 -17,-5 -7,-1 -13,-3 -18,-5 -5,-2 -10,-4 -14,-7 -4,-3 -7,-6 -8,-10 -2,-4 -3,-8 -3,-13 0,-5 1,-9 3,-13 2,-4 5,-8 9,-11 4,-3 8,-5 14,-7 5,-2 11,-3 18,-3 7,0 14,1 19,3 6,2 11,5 14,8 4,3 7,7 9,12 2,5 3,9 3,15l-14 0c0,-3 -1,-6 -2,-9 -1,-3 -3,-6 -6,-8 -3,-2 -6,-4 -10,-6 -4,-1 -9,-2 -14,-2 -5,0 -10,1 -14,2 -4,1 -7,3 -9,5 -2,2 -4,4 -5,7 -1,3 -2,5 -2,8 0,3 0,5 1,8 1,2 2,4 5,6 2,2 6,4 10,5 4,2 10,3 17,5 7,2 14,4 19,6 5,2 10,5 13,8 4,3 6,6 8,10 2,4 3,8 3,13 0,5 -1,10 -3,14 -2,4 -5,8 -9,11 -4,3 -9,5 -15,7 -6,2 -12,3 -19,3 -8,0 -15,-1 -21,-3 -6,-2 -11,-5 -15,-8 -4,-3 -7,-7 -9,-12 -2,-4 -3,-9 -3,-14l14 0c0,5 2,9 4,12 2,3 5,6 8,8 3,2 7,3 11,4 4,1 8,1 12,1 5,0 10,-1 14,-2 4,-1 7,-3 10,-5 3,-2 5,-4 6,-7 1,-3 2,-5 2,-8z"/>
  <path id="1" class="fil2" d="M740 2681c-8,0 -16,-2 -22,-5 -7,-3 -13,-7 -18,-13 -5,-5 -9,-12 -12,-19 -3,-7 -4,-16 -4,-24l0 -5c0,-10 1,-18 4,-26 3,-8 7,-14 12,-20 5,-5 11,-10 17,-13 6,-3 13,-5 20,-5 8,0 15,1 21,4 6,3 11,7 15,12 4,5 7,11 9,18 2,7 3,15 3,23l0 8 -89 0 0 3c0,7 1,13 3,19 2,6 5,11 9,16 4,4 8,8 13,11 5,3 11,4 17,4 7,0 14,-1 19,-4 6,-3 11,-7 15,-13l9 7c-2,3 -4,6 -7,9 -3,3 -6,5 -9,7 -4,2 -8,4 -12,5 -5,1 -10,2 -15,2zm-3 -117c-5,0 -10,1 -14,3 -4,2 -8,5 -12,9 -3,4 -6,8 -8,13 -2,5 -4,11 -4,17l75 0 0 -1c0,-5 -1,-10 -3,-15 -2,-5 -4,-9 -7,-13 -3,-4 -7,-7 -11,-9 -4,-2 -9,-3 -15,-3z"/>
  <path id="2" class="fil2" d="M808 2616c0,-10 1,-18 3,-26 2,-8 5,-14 9,-20 4,-6 9,-10 15,-13 6,-3 13,-5 20,-5 9,0 17,2 23,5 6,4 12,9 16,15l1 -18 13 0 0 122c0,8 -1,15 -4,22 -2,6 -6,12 -10,16 -4,4 -10,8 -16,10 -6,2 -13,4 -21,4 -4,0 -8,0 -12,-1 -4,-1 -8,-2 -12,-4 -4,-2 -7,-4 -11,-7 -3,-3 -6,-6 -9,-9l8 -8c5,6 10,11 16,14 6,3 12,4 19,4 6,0 11,-1 16,-3 5,-2 8,-4 12,-8 3,-3 6,-8 7,-12 2,-5 2,-10 2,-17l0 -14c-4,6 -9,10 -16,13 -6,3 -14,5 -23,5 -7,0 -14,-2 -20,-5 -6,-3 -11,-7 -15,-13 -4,-6 -7,-12 -9,-20 -2,-8 -3,-16 -3,-26l0 -2zm14 2c0,7 1,14 2,20 1,6 4,12 7,16 3,5 7,8 11,11 5,3 10,4 16,4 5,0 9,-1 13,-2 4,-1 7,-3 10,-5 3,-2 5,-4 8,-7 2,-3 4,-6 6,-9l0 -58c-1,-3 -3,-6 -5,-9 -2,-3 -4,-6 -7,-8 -3,-2 -6,-4 -10,-5 -4,-1 -8,-2 -13,-2 -6,0 -12,1 -16,4 -5,3 -8,6 -11,11 -3,5 -5,10 -7,16 -1,6 -2,13 -2,20l0 2z"/>
  <path id="3" class="fil2" d="M1024 2663c-4,6 -9,10 -16,13 -6,3 -14,5 -24,5 -6,0 -12,-1 -17,-3 -5,-2 -9,-4 -13,-8 -4,-4 -6,-9 -8,-15 -2,-6 -3,-13 -3,-22l0 -80 14 0 0 80c0,7 1,12 2,17 2,4 4,8 6,11 3,3 6,5 9,6 3,1 7,2 11,2 6,0 10,-1 15,-2 4,-1 8,-3 11,-5 3,-2 6,-5 8,-8 2,-3 4,-6 5,-10l0 -90 14 0 0 124 -13 0 0 -16z"/>
  <path id="4" class="fil2" d="M1131 2567c-3,-1 -6,-1 -9,-1 -5,0 -9,1 -13,2 -4,1 -7,3 -10,6 -3,3 -5,5 -7,9 -2,3 -3,7 -5,11l0 85 -14 0 0 -124 13 0 0 20c3,-7 8,-12 14,-16 6,-4 13,-6 21,-6 2,0 3,0 5,0 2,0 3,1 4,1l0 13z"/>
  <path id="5" class="fil2" d="M1226 2679c-1,-2 -1,-5 -2,-8 0,-3 -1,-6 -1,-9 -2,3 -5,5 -7,8 -3,2 -6,4 -10,6 -4,2 -7,3 -12,4 -4,1 -9,2 -14,2 -6,0 -12,-1 -16,-3 -5,-2 -9,-4 -13,-7 -3,-3 -6,-7 -8,-11 -2,-4 -3,-9 -3,-14 0,-6 1,-11 4,-16 3,-5 6,-9 11,-12 5,-3 11,-6 18,-8 7,-2 15,-3 24,-3l26 0 0 -14c0,-9 -3,-16 -8,-21 -5,-5 -13,-8 -24,-8 -5,0 -9,1 -13,2 -4,1 -8,3 -11,5 -3,2 -5,5 -7,8 -2,3 -2,6 -2,10l-14 0c0,-5 1,-9 3,-14 2,-4 6,-8 10,-12 4,-3 9,-6 15,-8 6,-2 12,-3 19,-3 7,0 13,1 18,3 6,2 10,4 14,8 4,3 7,8 9,13 2,5 3,11 3,18l0 60c0,2 0,4 0,7 0,2 0,5 1,7 0,2 1,4 1,6 0,2 1,4 2,5l0 1 -15 0zm-43 -10c5,0 10,-1 14,-2 4,-1 8,-3 12,-5 3,-2 6,-5 9,-8 3,-3 5,-6 6,-10l0 -27 -24 0c-7,0 -13,1 -19,2 -6,1 -10,3 -14,5 -4,2 -7,5 -9,9 -2,3 -3,7 -3,12 0,3 1,7 2,9 1,3 3,5 6,8 2,2 5,4 9,5 3,1 7,2 12,2z"/>
  <path id="6" class="fil2" d="M1287 2555l0 21c2,-4 5,-7 7,-10 3,-3 6,-5 9,-7 3,-2 7,-4 11,-5 4,-1 8,-2 13,-2 6,0 12,1 17,3 5,2 9,4 12,8 3,4 6,8 8,14 2,6 3,13 3,21l0 81 -14 0 0 -81c0,-6 -1,-12 -2,-16 -1,-4 -3,-8 -6,-10 -3,-3 -6,-4 -9,-6 -4,-1 -8,-2 -12,-2 -5,0 -9,1 -13,2 -4,2 -7,4 -11,7 -3,3 -6,6 -8,9 -2,4 -4,7 -5,11l0 85 -14 0 0 -124 13 0z"/>
  <path id="7" class="fil2" d="M1449 2670c4,0 9,-1 13,-2 4,-1 8,-3 11,-6 3,-2 6,-5 8,-9 2,-4 3,-8 4,-13l13 0c0,6 -2,11 -4,16 -3,5 -6,9 -10,13 -4,4 -9,6 -15,8 -6,2 -12,3 -18,3 -9,0 -16,-2 -23,-5 -7,-3 -12,-8 -17,-13 -5,-6 -8,-12 -10,-20 -2,-8 -3,-16 -3,-24l0 -5c0,-9 1,-17 3,-24 2,-8 6,-14 10,-20 4,-6 10,-10 17,-13 7,-3 14,-5 23,-5 7,0 13,1 19,3 6,2 11,5 15,9 4,4 8,8 10,14 3,5 4,12 4,18l-13 0c0,-5 -1,-10 -3,-14 -2,-4 -4,-7 -7,-10 -3,-3 -7,-5 -11,-7 -4,-1 -8,-2 -13,-2 -7,0 -13,1 -18,4 -5,3 -9,6 -12,11 -3,5 -5,10 -7,16 -1,6 -2,12 -2,19l0 5c0,7 1,13 2,19 1,6 4,11 7,16 3,5 7,8 12,11 5,3 11,4 18,4zm4 10l-1 7c2,0 5,1 7,2 2,1 4,2 6,3 2,2 3,3 4,6 1,2 2,5 2,9 0,3 -1,7 -2,9 -1,3 -4,5 -7,7 -3,2 -6,4 -11,5 -4,1 -9,2 -14,2l-1 -9c3,0 6,0 8,-1 3,-1 5,-1 7,-2 2,-1 4,-3 5,-4 1,-2 2,-4 2,-6 0,-4 -2,-7 -5,-9 -3,-2 -8,-3 -15,-3l3 -15 11 0z"/>
  <path id="8" class="fil2" d="M1603 2679c-1,-2 -1,-5 -2,-8 0,-3 -1,-6 -1,-9 -2,3 -5,5 -7,8 -3,2 -6,4 -10,6 -4,2 -7,3 -12,4 -4,1 -9,2 -14,2 -6,0 -12,-1 -16,-3 -5,-2 -9,-4 -13,-7 -3,-3 -6,-7 -8,-11 -2,-4 -3,-9 -3,-14 0,-6 1,-11 4,-16 3,-5 6,-9 11,-12 5,-3 11,-6 18,-8 7,-2 15,-3 24,-3l26 0 0 -14c0,-9 -3,-16 -8,-21 -5,-5 -13,-8 -24,-8 -5,0 -9,1 -13,2 -4,1 -8,3 -11,5 -3,2 -5,5 -7,8 -2,3 -2,6 -2,10l-14 0c0,-5 1,-9 3,-14 2,-4 6,-8 10,-12 4,-3 9,-6 15,-8 6,-2 12,-3 19,-3 7,0 13,1 18,3 6,2 10,4 14,8 4,3 7,8 9,13 2,5 3,11 3,18l0 60c0,2 0,4 0,7 0,2 0,5 1,7 0,2 1,4 1,6 0,2 1,4 2,5l0 1 -15 0zm-43 -10c5,0 10,-1 14,-2 4,-1 8,-3 12,-5 3,-2 6,-5 9,-8 3,-3 5,-6 6,-10l0 -27 -24 0c-7,0 -13,1 -19,2 -6,1 -10,3 -14,5 -4,2 -7,5 -9,9 -2,3 -3,7 -3,12 0,3 1,7 2,9 1,3 3,5 6,8 2,2 5,4 9,5 3,1 7,2 12,2z"/>
  <path id="9" class="fil2" d="M1807 2618c0,9 -1,18 -3,26 -2,8 -5,14 -9,20 -4,6 -9,10 -15,13 -6,3 -13,5 -20,5 -9,0 -17,-2 -23,-5 -6,-3 -12,-8 -16,-13l0 63 -14 0 0 -172 13 0 1 18c4,-6 10,-11 16,-15 6,-4 14,-5 23,-5 8,0 14,2 20,5 6,3 11,7 15,13 4,6 7,12 9,20 2,8 3,17 3,26l0 2zm-14 -2c0,-7 -1,-14 -2,-20 -1,-6 -4,-12 -7,-16 -3,-5 -7,-8 -12,-11 -5,-3 -10,-4 -16,-4 -5,0 -9,1 -13,2 -4,1 -7,3 -10,5 -3,2 -5,5 -7,8 -2,3 -4,6 -5,9l0 60c1,3 3,6 5,9 2,3 5,5 8,7 3,2 6,3 10,5 4,1 8,2 13,2 6,0 12,-1 16,-4 5,-3 8,-6 11,-11 3,-5 5,-10 7,-16 1,-6 2,-13 2,-20l0 -2z"/>
  <path id="10" class="fil2" d="M1886 2681c-8,0 -16,-2 -22,-5 -7,-3 -13,-7 -18,-13 -5,-5 -9,-12 -12,-19 -3,-7 -4,-16 -4,-24l0 -5c0,-10 1,-18 4,-26 3,-8 7,-14 12,-20 5,-5 11,-10 17,-13 6,-3 13,-5 20,-5 8,0 15,1 21,4 6,3 11,7 15,12 4,5 7,11 9,18 2,7 3,15 3,23l0 8 -89 0 0 3c0,7 1,13 3,19 2,6 5,11 9,16 4,4 8,8 13,11 5,3 11,4 17,4 7,0 14,-1 19,-4 6,-3 11,-7 15,-13l9 7c-2,3 -4,6 -7,9 -3,3 -6,5 -9,7 -4,2 -8,4 -12,5 -5,1 -10,2 -15,2zm-3 -117c-5,0 -10,1 -14,3 -4,2 -8,5 -12,9 -3,4 -6,8 -8,13 -2,5 -4,11 -4,17l75 0 0 -1c0,-5 -1,-10 -3,-15 -2,-5 -4,-9 -7,-13 -3,-4 -7,-7 -11,-9 -4,-2 -9,-3 -15,-3z"/>
  <polygon id="11" class="fil2" points="1975,2679 1961,2679 1961,2503 1975,2503 "/>
  <path id="12" class="fil2" d="M2004 2615c0,-9 1,-17 4,-25 3,-8 6,-14 11,-20 5,-6 11,-10 17,-13 7,-3 14,-5 23,-5 9,0 16,2 23,5 7,3 13,7 18,13 5,6 9,12 11,20 3,8 4,16 4,25l0 4c0,9 -1,17 -4,25 -3,8 -6,14 -11,20 -5,6 -11,10 -17,13 -7,3 -14,5 -23,5 -8,0 -16,-2 -23,-5 -7,-3 -13,-7 -18,-13 -5,-6 -9,-12 -11,-20 -3,-8 -4,-16 -4,-25l0 -4zm14 4c0,7 1,13 3,19 2,6 5,12 8,16 4,5 8,8 13,11 5,3 11,4 18,4 7,0 13,-1 18,-4 5,-3 10,-6 13,-11 4,-5 6,-10 8,-16 2,-6 3,-13 3,-19l0 -4c0,-7 -1,-13 -3,-19 -2,-6 -5,-12 -8,-16 -4,-5 -8,-8 -13,-11 -5,-3 -11,-4 -18,-4 -7,0 -13,1 -18,4 -5,3 -9,7 -13,11 -4,5 -6,10 -8,16 -2,6 -3,13 -3,19l0 4z"/>
  <path id="13" class="fil2" d="M2195 2616c0,-10 1,-18 3,-26 2,-8 5,-14 10,-20 4,-6 9,-10 15,-13 6,-3 13,-5 20,-5 9,0 16,2 23,5 6,4 12,8 16,15l0 -70 14 0 0 176 -13 0 -1 -17c-4,6 -9,11 -16,14 -6,3 -14,5 -23,5 -7,0 -14,-2 -20,-5 -6,-3 -11,-7 -15,-13 -4,-6 -7,-12 -10,-20 -2,-8 -3,-16 -3,-26l0 -2zm14 2c0,7 1,14 2,20 1,6 4,12 7,16 3,5 7,8 11,11 5,3 10,4 16,4 5,0 9,-1 13,-2 4,-1 7,-3 10,-5 3,-2 6,-4 8,-7 2,-3 4,-6 6,-9l0 -58c-1,-3 -3,-6 -5,-9 -2,-3 -4,-5 -7,-8 -3,-2 -6,-4 -10,-5 -4,-1 -8,-2 -13,-2 -6,0 -12,1 -16,4 -5,3 -8,6 -11,11 -3,5 -5,10 -7,16 -1,6 -2,13 -2,20l0 2z"/>
  <path id="14" class="fil2" d="M2347 2679l-14 0 0 -124 14 0 0 124zm-16 -160c0,-3 1,-5 3,-7 2,-2 4,-3 7,-3 3,0 5,1 7,3 2,2 3,4 3,7 0,3 -1,5 -3,7 -2,2 -4,3 -7,3 -3,0 -5,-1 -7,-3 -2,-2 -3,-4 -3,-7z"/>
  <path id="15" class="fil2" d="M2442 2567c-3,-1 -6,-1 -9,-1 -5,0 -9,1 -13,2 -4,1 -7,3 -10,6 -3,3 -5,5 -7,9 -2,3 -3,7 -5,11l0 85 -14 0 0 -124 13 0 0 20c3,-7 8,-12 14,-16 6,-4 13,-6 21,-6 2,0 3,0 5,0 2,0 3,1 4,1l0 13z"/>
  <path id="16" class="fil2" d="M2509 2681c-8,0 -16,-2 -22,-5 -7,-3 -13,-7 -18,-13 -5,-5 -9,-12 -12,-19 -3,-7 -4,-16 -4,-24l0 -5c0,-10 1,-18 4,-26 3,-8 7,-14 12,-20 5,-5 11,-10 17,-13 6,-3 13,-5 20,-5 8,0 15,1 21,4 6,3 11,7 15,12 4,5 7,11 9,18 2,7 3,15 3,23l0 8 -89 0 0 3c0,7 1,13 3,19 2,6 5,11 9,16 4,4 8,8 13,11 5,3 11,4 17,4 7,0 14,-1 19,-4 6,-3 11,-7 15,-13l9 7c-2,3 -4,6 -7,9 -3,3 -6,5 -9,7 -4,2 -8,4 -12,5 -5,1 -10,2 -15,2zm-3 -117c-5,0 -10,1 -14,3 -4,2 -8,5 -12,9 -3,4 -6,8 -8,13 -2,5 -4,11 -4,17l75 0 0 -1c0,-5 -1,-10 -3,-15 -2,-5 -4,-9 -7,-13 -3,-4 -7,-7 -11,-9 -4,-2 -9,-3 -15,-3z"/>
  <path id="17" class="fil2" d="M2598 2679l-14 0 0 -124 14 0 0 124zm-16 -160c0,-3 1,-5 3,-7 2,-2 4,-3 7,-3 3,0 5,1 7,3 2,2 3,4 3,7 0,3 -1,5 -3,7 -2,2 -4,3 -7,3 -3,0 -5,-1 -7,-3 -2,-2 -3,-4 -3,-7z"/>
  <path id="18" class="fil2" d="M2657 2523l0 32 26 0 0 11 -26 0 0 83c0,4 0,8 1,11 1,3 2,5 4,6 2,1 3,2 5,3 2,1 4,1 6,1 2,0 4,0 6,0 2,0 4,-1 5,-1l1 11c-2,1 -4,1 -7,1 -3,0 -5,1 -8,1 -4,0 -8,-1 -11,-2 -3,-1 -6,-3 -9,-5 -2,-3 -4,-6 -6,-10 -1,-4 -2,-9 -2,-16l0 -83 -23 0 0 -11 23 0 0 -32 14 0z"/>
  <path id="19" class="fil2" d="M2701 2615c0,-9 1,-17 4,-25 3,-8 6,-14 11,-20 5,-6 11,-10 17,-13 7,-3 14,-5 23,-5 9,0 16,2 23,5 7,3 13,7 18,13 5,6 9,12 11,20 3,8 4,16 4,25l0 4c0,9 -1,17 -4,25 -3,8 -6,14 -11,20 -5,6 -11,10 -17,13 -7,3 -14,5 -23,5 -8,0 -16,-2 -23,-5 -7,-3 -13,-7 -18,-13 -5,-6 -9,-12 -11,-20 -3,-8 -4,-16 -4,-25l0 -4zm14 4c0,7 1,13 3,19 2,6 5,12 8,16 4,5 8,8 13,11 5,3 11,4 18,4 7,0 13,-1 18,-4 5,-3 10,-6 13,-11 4,-5 6,-10 8,-16 2,-6 3,-13 3,-19l0 -4c0,-7 -1,-13 -3,-19 -2,-6 -5,-12 -8,-16 -4,-5 -8,-8 -13,-11 -5,-3 -11,-4 -18,-4 -7,0 -13,1 -18,4 -5,3 -9,7 -13,11 -4,5 -6,10 -8,16 -2,6 -3,13 -3,19l0 4z"/>
  <path class="fil3" d="M1053 2852c0,-10 1,-18 3,-26 2,-8 5,-14 10,-20 4,-6 9,-10 15,-13 6,-3 13,-5 20,-5 9,0 16,2 23,5 6,4 12,8 16,15l0 -70 14 0 0 176 -13 0 -1 -17c-4,6 -9,11 -16,14 -6,3 -14,5 -23,5 -7,0 -14,-2 -20,-5 -6,-3 -11,-7 -15,-13 -4,-6 -7,-12 -10,-20 -2,-8 -3,-16 -3,-26l0 -2zm14 2c0,7 1,14 2,20 1,6 4,12 7,16 3,5 7,8 11,11 5,3 10,4 16,4 5,0 9,-1 13,-2 4,-1 7,-3 10,-5 3,-2 6,-4 8,-7 2,-3 4,-6 6,-9l0 -58c-1,-3 -3,-6 -5,-9 -2,-3 -4,-5 -7,-8 -3,-2 -6,-4 -10,-5 -4,-1 -8,-2 -13,-2 -6,0 -12,1 -16,4 -5,3 -8,6 -11,11 -3,5 -5,10 -7,16 -1,6 -2,13 -2,20l0 2z"/>
  <path id="1" class="fil3" d="M1238 2917c-8,0 -16,-2 -22,-5 -7,-3 -13,-7 -18,-13 -5,-5 -9,-12 -12,-19 -3,-7 -4,-16 -4,-24l0 -5c0,-10 1,-18 4,-26 3,-8 7,-14 12,-20 5,-5 11,-10 17,-13 6,-3 13,-5 20,-5 8,0 15,1 21,4 6,3 11,7 15,12 4,5 7,11 9,18 2,7 3,15 3,23l0 8 -89 0 0 3c0,7 1,13 3,19 2,6 5,11 9,16 4,4 8,8 13,11 5,3 11,4 17,4 7,0 14,-1 19,-4 6,-3 11,-7 15,-13l9 7c-2,3 -4,6 -7,9 -3,3 -6,5 -9,7 -4,2 -8,4 -12,5 -5,1 -10,2 -15,2zm-3 -117c-5,0 -10,1 -14,3 -4,2 -8,5 -12,9 -3,4 -6,8 -8,13 -2,5 -4,11 -4,17l75 0 0 -1c0,-5 -1,-10 -3,-15 -2,-5 -4,-9 -7,-13 -3,-4 -7,-7 -11,-9 -4,-2 -9,-3 -15,-3z"/>
  <path id="2" class="fil3" d="M1323 2791l0 20c2,-3 4,-6 7,-9 3,-3 6,-5 9,-7 3,-2 7,-3 11,-5 4,-1 8,-2 13,-2 9,0 17,2 23,6 7,4 11,10 14,18 2,-3 4,-7 7,-10 3,-3 6,-5 10,-8 4,-2 7,-4 12,-5 4,-1 9,-2 14,-2 6,0 12,1 17,3 5,2 9,4 13,8 3,4 6,8 8,14 2,6 3,13 3,21l0 81 -14 0 0 -81c0,-7 -1,-12 -2,-16 -1,-4 -4,-8 -6,-10 -3,-3 -6,-4 -10,-5 -4,-1 -8,-1 -12,-1 -6,0 -11,1 -15,3 -4,2 -8,5 -11,8 -3,3 -5,7 -7,10 -2,4 -3,8 -3,11l0 82 -14 0 0 -82c0,-6 -1,-11 -2,-15 -1,-4 -4,-7 -6,-10 -3,-3 -6,-4 -10,-5 -4,-1 -8,-2 -12,-2 -5,0 -10,1 -14,2 -4,2 -7,4 -10,7 -3,3 -5,6 -7,9 -2,4 -3,7 -5,11l0 85 -14 0 0 -124 13 0z"/>
  <path id="3" class="fil3" d="M1512 2851c0,-9 1,-17 4,-25 3,-8 6,-14 11,-20 5,-6 11,-10 17,-13 7,-3 14,-5 23,-5 9,0 16,2 23,5 7,3 13,7 18,13 5,6 9,12 11,20 3,8 4,16 4,25l0 4c0,9 -1,17 -4,25 -3,8 -6,14 -11,20 -5,6 -11,10 -17,13 -7,3 -14,5 -23,5 -8,0 -16,-2 -23,-5 -7,-3 -13,-7 -18,-13 -5,-6 -9,-12 -11,-20 -3,-8 -4,-16 -4,-25l0 -4zm14 4c0,7 1,13 3,19 2,6 5,12 8,16 4,5 8,8 13,11 5,3 11,4 18,4 7,0 13,-1 18,-4 5,-3 10,-6 13,-11 4,-5 6,-10 8,-16 2,-6 3,-13 3,-19l0 -4c0,-7 -1,-13 -3,-19 -2,-6 -5,-12 -8,-16 -4,-5 -8,-8 -13,-11 -5,-3 -11,-4 -18,-4 -7,0 -13,1 -18,4 -5,3 -9,7 -13,11 -4,5 -6,10 -8,16 -2,6 -3,13 -3,19l0 4z"/>
  <path id="4" class="fil3" d="M1697 2906c4,0 9,-1 13,-2 4,-1 8,-3 11,-6 3,-2 6,-5 8,-9 2,-4 3,-8 4,-13l13 0c0,6 -2,11 -4,16 -3,5 -6,9 -10,13 -4,4 -9,6 -15,8 -6,2 -12,3 -18,3 -9,0 -16,-2 -23,-5 -7,-3 -12,-8 -17,-13 -5,-6 -8,-12 -10,-20 -2,-8 -3,-16 -3,-24l0 -5c0,-9 1,-17 3,-24 2,-8 6,-14 10,-20 4,-6 10,-10 17,-13 7,-3 14,-5 23,-5 7,0 13,1 19,3 6,2 11,5 15,9 4,4 8,8 10,14 3,5 4,12 4,18l-13 0c0,-5 -1,-10 -3,-14 -2,-4 -4,-7 -7,-10 -3,-3 -7,-5 -11,-7 -4,-1 -8,-2 -13,-2 -7,0 -13,1 -18,4 -5,3 -9,6 -12,11 -3,5 -5,10 -7,16 -1,6 -2,12 -2,19l0 5c0,7 1,13 2,19 1,6 4,11 7,16 3,5 7,8 12,11 5,3 11,4 18,4z"/>
  <path id="5" class="fil3" d="M1830 2803c-3,-1 -6,-1 -9,-1 -5,0 -9,1 -13,2 -4,1 -7,3 -10,6 -3,3 -5,5 -7,9 -2,3 -3,7 -5,11l0 85 -14 0 0 -124 13 0 0 20c3,-7 8,-12 14,-16 6,-4 13,-6 21,-6 2,0 3,0 5,0 2,0 3,1 4,1l0 13z"/>
  <path id="6" class="fil3" d="M1925 2915c-1,-2 -1,-5 -2,-8 0,-3 -1,-6 -1,-9 -2,3 -5,5 -7,8 -3,2 -6,4 -10,6 -4,2 -7,3 -12,4 -4,1 -9,2 -14,2 -6,0 -12,-1 -16,-3 -5,-2 -9,-4 -13,-7 -3,-3 -6,-7 -8,-11 -2,-4 -3,-9 -3,-14 0,-6 1,-11 4,-16 3,-5 6,-9 11,-12 5,-3 11,-6 18,-8 7,-2 15,-3 24,-3l26 0 0 -14c0,-9 -3,-16 -8,-21 -5,-5 -13,-8 -24,-8 -5,0 -9,1 -13,2 -4,1 -8,3 -11,5 -3,2 -5,5 -7,8 -2,3 -2,6 -2,10l-14 0c0,-5 1,-9 3,-14 2,-4 6,-8 10,-12 4,-3 9,-6 15,-8 6,-2 12,-3 19,-3 7,0 13,1 18,3 6,2 10,4 14,8 4,3 7,8 9,13 2,5 3,11 3,18l0 60c0,2 0,4 0,7 0,2 0,5 1,7 0,2 1,4 1,6 0,2 1,4 2,5l0 1 -15 0zm-43 -10c5,0 10,-1 14,-2 4,-1 8,-3 12,-5 3,-2 6,-5 9,-8 3,-3 5,-6 6,-10l0 -27 -24 0c-7,0 -13,1 -19,2 -6,1 -10,3 -14,5 -4,2 -7,5 -9,9 -2,3 -3,7 -3,12 0,3 1,7 2,9 1,3 3,5 6,8 2,2 5,4 9,5 3,1 7,2 12,2zm27 -165l17 0 -27 32 -12 0 22 -32z"/>
  <path id="7" class="fil3" d="M1994 2759l0 32 26 0 0 11 -26 0 0 83c0,4 0,8 1,11 1,3 2,5 4,6 2,1 3,2 5,3 2,1 4,1 6,1 2,0 4,0 6,0 2,0 4,-1 5,-1l1 11c-2,1 -4,1 -7,1 -3,0 -5,1 -8,1 -4,0 -8,-1 -11,-2 -3,-1 -6,-3 -9,-5 -2,-3 -4,-6 -6,-10 -1,-4 -2,-9 -2,-16l0 -83 -23 0 0 -11 23 0 0 -32 14 0z"/>
  <path id="8" class="fil3" d="M2064 2915l-14 0 0 -124 14 0 0 124zm-16 -160c0,-3 1,-5 3,-7 2,-2 4,-3 7,-3 3,0 5,1 7,3 2,2 3,4 3,7 0,3 -1,5 -3,7 -2,2 -4,3 -7,3 -3,0 -5,-1 -7,-3 -2,-2 -3,-4 -3,-7z"/>
  <path id="9" class="fil3" d="M2147 2906c4,0 9,-1 13,-2 4,-1 8,-3 11,-6 3,-2 6,-5 8,-9 2,-4 3,-8 4,-13l13 0c0,6 -2,11 -4,16 -3,5 -6,9 -10,13 -4,4 -9,6 -15,8 -6,2 -12,3 -18,3 -9,0 -16,-2 -23,-5 -7,-3 -12,-8 -17,-13 -5,-6 -8,-12 -10,-20 -2,-8 -3,-16 -3,-24l0 -5c0,-9 1,-17 3,-24 2,-8 6,-14 10,-20 4,-6 10,-10 17,-13 7,-3 14,-5 23,-5 7,0 13,1 19,3 6,2 11,5 15,9 4,4 8,8 10,14 3,5 4,12 4,18l-13 0c0,-5 -1,-10 -3,-14 -2,-4 -4,-7 -7,-10 -3,-3 -7,-5 -11,-7 -4,-1 -8,-2 -13,-2 -7,0 -13,1 -18,4 -5,3 -9,6 -12,11 -3,5 -5,10 -7,16 -1,6 -2,12 -2,19l0 5c0,7 1,13 2,19 1,6 4,11 7,16 3,5 7,8 12,11 5,3 11,4 18,4z"/>
  <path id="10" class="fil3" d="M2215 2851c0,-9 1,-17 4,-25 3,-8 6,-14 11,-20 5,-6 11,-10 17,-13 7,-3 14,-5 23,-5 9,0 16,2 23,5 7,3 13,7 18,13 5,6 9,12 11,20 3,8 4,16 4,25l0 4c0,9 -1,17 -4,25 -3,8 -6,14 -11,20 -5,6 -11,10 -17,13 -7,3 -14,5 -23,5 -8,0 -16,-2 -23,-5 -7,-3 -13,-7 -18,-13 -5,-6 -9,-12 -11,-20 -3,-8 -4,-16 -4,-25l0 -4zm14 4c0,7 1,13 3,19 2,6 5,12 8,16 4,5 8,8 13,11 5,3 11,4 18,4 7,0 13,-1 18,-4 5,-3 10,-6 13,-11 4,-5 6,-10 8,-16 2,-6 3,-13 3,-19l0 -4c0,-7 -1,-13 -3,-19 -2,-6 -5,-12 -8,-16 -4,-5 -8,-8 -13,-11 -5,-3 -11,-4 -18,-4 -7,0 -13,1 -18,4 -5,3 -9,7 -13,11 -4,5 -6,10 -8,16 -2,6 -3,13 -3,19l0 4z"/>
 </g>
</svg>
